<svg xmlns="http://www.w3.org/2000/svg" xml:space="preserve" width="800" height="800" viewBox="0 0 512 512"><path fill='#dadada' d="M255.856 129.6c-79.632 0-144.416 64.768-144.416 144.4s64.768 144.416 144.416 144.416S400.288 353.648 400.272 274c0-79.616-64.784-144.4-144.416-144.4zm0 256.816c-61.984 0-112.416-50.432-112.416-112.416s50.432-112.4 112.416-112.4S368.272 212.016 368.272 274 317.84 386.416 255.856 386.416z"/><path fill='#dadada' d="M464.48 112h-90.624l-14.048-34.576C351.728 60.656 331.488 48 312.72 48H199.104c-18.768 0-39.008 12.656-47.504 30.352L137.952 112H47.344C21.232 112 0 132.672 0 158.096V418.4C0 443.552 21.232 464 47.344 464H464.48c26.208 0 47.52-20.448 47.52-45.584v-260.32C512 132.672 490.688 112 464.48 112zM480 418.4c0 8.128-8.016 13.6-15.52 13.6H47.344C39.936 432 32 426.528 32 418.416v-260.32C32 150.448 39.024 144 47.344 144h101.392a15.992 15.992 0 0 0 14.816-9.984l17.264-42.688C183.584 85.616 192.64 80 199.104 80H312.72c6.464 0 15.52 5.616 17.856 10.384l17.68 43.632c2.464 6.032 8.32 9.984 14.832 9.984H464.48c8.272 0 15.52 6.576 15.52 14.096V418.4z"/><circle fill='#dadada' cx="63.936" cy="176.16" r="16.304"/><path fill='#dadada' d="M255.856 209.648c-35.472 0-64.352 28.864-64.352 64.352s28.864 64.368 64.352 64.368 64.368-28.864 64.352-64.368c0-35.472-28.88-64.352-64.352-64.352zm0 96.72c-17.84 0-32.352-14.512-32.352-32.368 0-17.84 14.512-32.352 32.352-32.352S288.224 256.16 288.208 274c0 17.856-14.512 32.368-32.352 32.368z"/></svg>